<?xml version="1.0" standalone="no"?>
<!DOCTYPE svg PUBLIC "-//W3C//DTD SVG 20010904//EN"
 "http://www.w3.org/TR/2001/REC-SVG-20010904/DTD/svg10.dtd">
<svg version="1.0" xmlns="http://www.w3.org/2000/svg"
 width="1042.000000pt" height="592.000000pt" viewBox="0 0 1042.000000 592.000000"
 preserveAspectRatio="xMidYMid meet">

<g transform="translate(0.000000,592.000000) scale(0.100000,-0.100000)"
fill="#000000" stroke="none">
<path d="M1633 3545 c-116 -32 -204 -100 -250 -194 -26 -52 -28 -65 -28 -176
0 -105 3 -127 24 -173 42 -92 108 -136 271 -177 57 -14 116 -33 131 -41 37
-19 49 -62 23 -82 -29 -22 -189 -10 -287 21 l-78 25 -19 -37 c-24 -47 -50
-149 -50 -194 0 -76 80 -125 239 -146 303 -40 527 35 612 207 21 41 24 61 24
162 0 100 -3 122 -24 167 -44 99 -124 151 -311 203 -117 32 -150 50 -150 80 0
41 61 56 165 40 42 -6 102 -20 133 -31 31 -11 59 -16 64 -11 36 36 72 238 49
280 -17 31 -81 61 -168 78 -95 18 -301 17 -370 -1z"/>
<path d="M7565 3541 c-53 -24 -78 -63 -79 -123 -1 -61 26 -98 85 -116 141 -41
265 80 203 199 -29 57 -130 76 -209 40z"/>
<path d="M8855 3546 c-51 -22 -85 -71 -85 -122 0 -89 46 -129 145 -128 62 1
110 25 135 67 25 40 26 114 4 146 -33 47 -134 66 -199 37z"/>
<path d="M2511 3540 c-18 -4 -42 -17 -53 -27 -18 -18 -19 -44 -25 -464 -9
-556 -8 -569 11 -608 31 -58 48 -63 220 -59 214 4 201 -11 201 241 l0 192 133
3 133 3 -3 -173 c-2 -149 0 -178 15 -205 32 -60 48 -65 222 -61 l157 3 24 29
25 28 -7 167 c-4 94 -1 309 6 496 11 293 11 334 -3 367 -27 64 -52 73 -207 73
-156 0 -183 -5 -207 -42 -16 -24 -18 -49 -15 -220 l4 -193 -137 0 -136 0 3
183 c3 168 1 185 -17 217 -13 22 -34 39 -55 47 -39 13 -236 15 -289 3z"/>
<path d="M3874 3540 c-64 -20 -69 -36 -66 -194 2 -77 -2 -296 -7 -486 -6 -209
-7 -361 -1 -385 5 -24 21 -51 40 -67 30 -28 31 -28 176 -28 157 0 197 10 214
54 4 12 6 113 3 222 -3 110 0 328 6 485 14 315 11 344 -42 383 -25 19 -44 21
-160 23 -73 1 -146 -2 -163 -7z"/>
<path d="M4543 3539 c-17 -5 -42 -22 -53 -37 -21 -25 -22 -34 -16 -137 4 -60
2 -278 -4 -483 -12 -410 -10 -434 41 -476 30 -25 34 -26 175 -26 235 0 237 2
205 293 -11 111 -21 227 -21 257 0 53 0 54 18 35 28 -30 138 -206 188 -299 30
-57 46 -102 53 -148 18 -127 36 -138 226 -138 207 0 225 17 205 200 -8 75 -8
180 1 408 19 496 19 500 -40 539 -32 22 -243 31 -308 14 -75 -20 -77 -25 -69
-196 4 -82 10 -167 13 -187 4 -29 2 -38 -8 -38 -8 1 -79 97 -159 215 l-145
214 -135 0 c-74 -1 -149 -5 -167 -10z"/>
<path d="M5870 3540 c-69 -17 -66 7 -74 -554 -7 -558 -7 -559 53 -590 40 -21
280 -24 263 -3 -26 31 -42 134 -42 270 0 148 10 236 41 361 26 101 50 148 94
182 l35 26 0 113 c0 100 -2 116 -23 146 -13 19 -38 39 -57 46 -39 13 -237 15
-290 3z"/>
<path d="M6263 3165 c-53 -23 -75 -71 -109 -250 -22 -109 -25 -378 -6 -441 25
-85 79 -118 147 -90 42 18 48 29 90 175 64 224 159 391 198 352 7 -7 4 -65 -8
-175 -10 -91 -15 -187 -12 -215 14 -115 68 -165 150 -139 47 15 54 28 102 193
49 165 159 356 197 342 17 -6 13 -77 -9 -182 -9 -44 -17 -116 -17 -160 -2
-142 54 -201 187 -198 73 2 160 36 223 88 l31 25 26 -38 c66 -100 222 -101
348 -1 l39 31 11 -29 c24 -64 69 -89 130 -73 47 13 58 32 94 161 44 158 163
379 205 379 22 0 21 -33 -5 -186 -28 -162 -28 -221 0 -274 50 -95 188 -113
320 -41 l54 28 6 -24 c8 -32 66 -57 114 -48 85 15 95 30 105 158 8 104 37 302
66 447 34 179 28 200 -60 200 -61 0 -108 -24 -124 -62 -17 -40 -50 -197 -70
-333 l-15 -100 -59 -57 c-71 -69 -107 -81 -135 -47 -23 29 -19 81 19 259 14
63 28 152 31 197 6 81 6 82 -25 112 -26 26 -38 31 -79 31 -123 -1 -252 -115
-344 -304 -21 -43 -41 -81 -43 -84 -9 -8 5 70 35 196 37 156 37 180 3 188 -14
4 -46 4 -72 1 -70 -8 -103 -49 -131 -163 -25 -103 -41 -209 -41 -275 0 -42 -5
-50 -56 -103 -83 -85 -129 -95 -154 -35 -17 41 -8 139 29 326 17 83 31 167 31
187 0 46 -29 66 -93 66 -40 0 -54 -5 -76 -28 -39 -39 -78 -181 -101 -374 l-12
-97 -58 -55 c-69 -66 -105 -79 -132 -46 -25 30 -23 52 18 262 52 268 42 324
-59 335 -59 7 -104 -9 -175 -61 -67 -50 -119 -117 -179 -231 -23 -44 -43 -78
-43 -74 0 3 9 45 20 95 11 49 20 119 20 155 0 88 -17 110 -88 117 -113 10
-242 -98 -334 -283 -49 -99 -50 -100 -43 -50 4 28 20 106 35 174 35 149 32
161 -38 161 -26 -1 -61 -7 -79 -15z"/>
</g>
</svg>
